<svg xmlns="http://www.w3.org/2000/svg" viewBox="0 0 16 20" fill="none" x="0px" y="0px"><path fill-rule="evenodd" clip-rule="evenodd" d="M2.5 8C2.5 4.96243 4.96243 2.5 8 2.5C9.94524 2.5 11.6552 3.50962 12.6336 5.03554H10C9.72386 5.03554 9.5 5.25939 9.5 5.53554C9.5 5.81168 9.72386 6.03554 10 6.03554H13.5355C13.8117 6.03554 14.0355 5.81168 14.0355 5.53554V2C14.0355 1.72386 13.8117 1.5 13.5355 1.5C13.2594 1.5 13.0355 1.72386 13.0355 2V3.88962C11.844 2.43172 10.031 1.5 8 1.5C4.41015 1.5 1.5 4.41015 1.5 8C1.5 11.5899 4.41015 14.5 8 14.5C9.66445 14.5 11.1838 13.8737 12.3335 12.8448C12.9952 12.2525 13.535 11.5265 13.9104 10.7086C14.0256 10.4576 13.9155 10.1608 13.6645 10.0456C13.4136 9.93039 13.1167 10.0405 13.0015 10.2914C12.6841 10.983 12.2272 11.5978 11.6665 12.0996C10.6932 12.9708 9.40897 13.5 8 13.5C4.96243 13.5 2.5 11.0376 2.5 8Z" fill="black"/><text x="0" y="31" fill="#000000" font-size="5px" font-weight="bold" font-family="'Helvetica Neue', Helvetica, Arial-Unicode, Arial, Sans-serif">Created by Yoyo</text><text x="0" y="36" fill="#000000" font-size="5px" font-weight="bold" font-family="'Helvetica Neue', Helvetica, Arial-Unicode, Arial, Sans-serif">from the Noun Project</text></svg>